<?xml version="1.0" encoding="UTF-8"?>
<svg width="191px" height="124px" viewBox="0 0 191 124" version="1.1" xmlns="http://www.w3.org/2000/svg" xmlns:xlink="http://www.w3.org/1999/xlink">
    <!-- Generator: Sketch 47.1 (45422) - http://www.bohemiancoding.com/sketch -->
    <title>mammoth</title>
    <desc>Created with Sketch.</desc>
    <defs></defs>
    <g id="Page-1" stroke="none" stroke-width="1" fill="none" fill-rule="evenodd">
        <g id="mammoth" fill-rule="nonzero" fill="#F85E23">
            <g id="Group" transform="translate(95.500000, 62.000000) scale(-1, 1) rotate(-180.000000) translate(-95.500000, -62.000000) ">
                <path d="M100,121 C88.3,117.1 84.3,115.3 83.7,113.7 C83.4,112.9 82.9,109.8 82.5,106.7 C82.1,103.5 81.4,101 80.8,101 C80.3,101 78.2,101.9 76,103 C70.7,105.7 70.1,105.6 68.3,101.3 C66.8,97.5 66.8,85.1 68.5,80.5 L69.2,78.5 L67.5,80.5 C65,83.5 62.4,89.9 61,96.3 C60.4,99.5 59.6,102 59.2,102 C58.8,102 54.5,99.1 49.7,95.6 C39,88 26.9,77.2 17.8,67.2 C11.4,60.1 11.2,59.8 12.6,57.2 C15,52.7 14.3,46 10.9,39.2 C8.1,33.5 3.7,29 1.1,29 C0.4,29 0,24.3 0,14.5 L0,0 L12.5,0 L25,0 L25,6.1 C25,11.1 24.5,12.7 22.3,15.7 L19.6,19.2 L26.9,15.5 L34.3,11.8 L33.6,19.7 C32.9,27.1 33,27.7 35.8,32 C39.4,37.7 44.7,43.8 47.2,45.1 C48.5,45.8 47.7,43.6 44.2,37.1 L39.4,28.1 L41.2,14.3 C42.3,6.7 43.3,0.4 43.4,0.2 C43.6,0.1 51.9,0.1 61.8,0.2 L80,0.5 L73.9,11.4 L67.8,22.4 L70.2,24.3 C77.2,29.9 94.6,35.4 103.4,34.8 L107.5,34.5 L107.1,30.5 C106.7,25.5 102.7,17.5 99.6,15.5 C96.5,13.4 94,14.5 94,18 C94,20.7 96.2,22.6 98.1,21.4 C99.8,20.4 99,23.7 97.2,25.3 C91.9,30.1 84,24.7 84,16.3 C84,7.3 89.7,1 97.7,1 C108.3,1 120.5,16.2 127,37.4 L129.2,44.6 L133.7,42.4 C146.3,36 166.7,39.8 179.2,50.9 C182.1,53.5 185.2,57.6 187.2,61.8 C190.3,68 190.5,69.2 190.5,78.5 C190.5,87.2 190.2,89.1 188,93.4 C184.5,100.2 179.3,104.2 173.2,104.8 C169.1,105.2 168,104.8 165.2,102.5 C160.9,98.9 161.2,98.1 166,99.3 C169.4,100.3 170.3,100.1 172.7,98.4 C178,94.4 179.4,91.4 179.8,83.5 C180.6,69.2 174,58.8 161.4,54 C153.9,51.2 141.3,51.5 135.9,54.6 L132.5,56.6 L131.9,69.6 C131.1,85.8 131.2,85 130.2,85 C129.8,85 127.9,79.8 126,73.3 C120.4,53.8 115,45.5 106.3,43.1 C95.9,40.2 84.5,45 79.9,54.3 L77.8,58.5 L81.6,54.9 C86.7,50.1 90,48.4 90,50.4 C90,51.2 91.1,53.1 92.4,54.7 C94.6,57.2 95,57.3 98.5,56.3 C106.1,53.9 109.9,58.7 117,79.4 C120.7,90.2 124.8,100 125.5,100 C125.7,100 126.6,97.6 127.5,94.8 C128.4,91.9 129.4,88.8 129.7,88 C130,87.1 131.2,88.8 132.9,92.5 C135.6,98.3 140.8,104 143.4,104 C144.1,104 146.4,102.9 148.4,101.5 C152.3,98.9 152.8,99.5 150.5,104 C148.4,108 145.2,110 140.7,110 C136.2,110 132.5,108.2 128.6,104.2 L125.8,101.2 L122.8,107 C119.2,114 111.4,124 109.7,123.9 C109.1,123.9 104.7,122.6 100,121 Z M98.8,80.2 C101.1,79.3 103,78.3 103,77.9 C103,76.7 96,73.9 93.8,74.2 C91.4,74.6 88.5,78.3 87.6,82.3 L86.9,85 L90.7,83.4 C92.8,82.5 96.4,81.1 98.8,80.2 Z" id="body"></path>
                <path d="M132.7,35 C132.4,34.2 131.4,31.2 130.5,28.4 C128.5,21.8 122.7,12.3 116.6,5.4 L111.9,0 L128.4,0 C137.5,0 145,0.3 145,0.8 C145,3.2 133.1,36.2 132.7,35 Z" id="leg"></path>
            </g>
        </g>
    </g>
</svg>