<?xml version="1.0" encoding="UTF-8"?>
<svg width="25px" height="25px" viewBox="0 0 179 227" version="1.1" xmlns="http://www.w3.org/2000/svg" xmlns:xlink="http://www.w3.org/1999/xlink">
    <!-- Generator: Sketch 48.2 (47327) - http://www.bohemiancoding.com/sketch -->
    <title>Raspberry-pi</title>
    <desc>Created with Sketch.</desc>
    <defs></defs>
    <g id="Page-1" stroke="none" stroke-width="1" fill="none" fill-rule="evenodd">
        <g id="Raspberry-pi" fill="#FFFFFF" fill-rule="nonzero">
            <path d="M103.81015,224.445353 C109.55722,222.130415 114.692644,218.515724 118.815522,213.883462 C124.769801,211.627574 130.412588,208.619712 135.607248,204.932706 L137.48292,203.590093 C139.149002,202.347749 140.911152,201.240323 142.752664,200.278313 C153.527496,195.215176 161.531678,185.65522 164.635498,174.142107 C164.971623,172.995338 165.240041,171.82972 165.439357,170.651313 C165.397668,169.995589 165.397668,169.33787 165.439357,168.682146 L166.779123,165.012337 C167.814223,162.394134 168.650239,159.701227 169.280018,156.956657 C169.585196,155.540498 170.228848,154.219742 171.15569,153.107832 C175.585588,147.602963 178.289489,140.906704 178.926329,133.863708 C179.31234,127.714878 178.17715,121.565675 175.621574,115.962197 C172.883292,109.539632 168.433461,103.996488 162.759827,99.9403442 C162.707213,96.4884304 162.378663,93.0462916 161.777332,89.6469754 C160.299285,81.849582 156.277712,74.7653835 150.344668,69.5077755 L147.843772,67.4491018 C148.614321,66.6653377 149.248328,65.7576876 149.719444,64.7638751 C152.918828,63.9323 155.516376,61.5962126 156.686224,58.4983463 C156.686224,57.5137632 157.579401,56.9767179 159.365754,55.6341045 C161.595666,53.7691766 163.084975,51.165284 163.563686,48.294485 C165.765607,46.2217911 167.051536,43.3545184 167.136394,40.3283126 C167.136394,39.7912673 167.136394,39.7912673 168.02957,38.6276691 C169.729082,36.4150324 170.440237,33.5967632 169.99456,30.8405118 C172.114831,27.7916841 172.322624,23.8005313 170.530466,20.547143 C171.463354,17.992927 171.26851,15.1616825 169.99456,12.7599857 C168.521217,10.2709076 166.046355,8.54134834 163.206415,8.01608531 C162.315209,7.93198678 161.41809,7.93198678 160.526884,8.01608531 C159.257402,6.88535217 157.766927,6.03184171 156.150317,5.50987377 C154.220513,4.88120006 152.192979,4.60826578 150.166032,4.70430578 C148.069083,3.27671495 145.546893,2.61323272 143.020617,2.82464712 C141.991052,2.11474478 140.840853,1.59908829 139.626544,1.30301869 C137.40648,0.680393989 135.058465,0.680393989 132.8384,1.30301869 C130.036787,-0.146339846 126.708244,-0.146339846 123.906631,1.30301869 L122.120277,2.01907913 C120.424564,1.55464652 118.635564,1.55464652 116.939851,2.01907913 C115.793567,2.19512776 114.731359,2.72736074 113.903049,3.54070756 C110.686771,2.99909017 107.399393,3.95445633 104.97128,6.13642665 L103.631515,7.38953242 C101.532407,7.48538815 99.5233353,8.27185011 97.9151824,9.6272213 C95.0374974,11.8788085 92.5611289,14.6025516 90.5911317,17.6829012 L89.4300017,19.4730523 C87.3295054,14.9153887 84.1011741,10.9715335 80.051644,8.01608531 C78.9444595,6.80543574 77.2355175,6.3510792 75.6750771,6.85248709 C75.2953138,6.3992347 74.8769204,5.97995191 74.4246294,5.59938132 C71.7379256,3.20522349 68.1790097,2.03801148 64.5996833,2.37710935 C62.10922,0.863714704 59.1178307,0.412440788 56.293138,1.12400358 C55.5058693,0.855599183 54.6997921,0.646171976 53.8815603,0.497450694 C51.4073617,-0.318105558 48.7122833,-0.125190752 46.3788742,1.03449602 C42.8982025,0.0316744847 39.1606715,0.483714669 36.018022,2.28760179 C33.6162992,2.0649185 31.2203181,2.7692336 29.3191951,4.256768 C26.1661598,4.13501256 23.050834,4.97793852 20.3874259,6.67347198 C19.4646912,7.58939928 18.2014162,8.0763071 16.9040359,8.01608531 C12.7622125,8.44597454 9.3517405,11.46796 8.41885518,15.5347199 C7.92524646,17.3514738 7.92524646,19.2674344 8.41885518,21.0841883 C6.99026272,24.1966368 7.29538577,27.831922 9.22271441,30.6614967 C9.0783477,31.3702496 9.0783477,32.1009251 9.22271441,32.809678 C9.43677766,35.2789876 10.4034149,37.6225974 11.9915629,39.5227446 C11.7549568,42.9149813 13.1088007,46.2240589 15.6535882,48.4735001 C15.9026931,50.2647039 16.6104368,51.960732 17.7078951,53.3964157 C18.8420179,54.9916168 20.2662267,56.3581196 21.9058266,57.4242556 C22.7946827,60.3125679 24.8294011,62.707635 27.5328412,64.0478147 L29.4978305,64.9428902 C29.9716543,65.9084553 30.6059247,66.7862145 31.373502,67.5386093 C25.7722973,71.652822 21.4890382,77.3137659 19.0476605,83.8289843 C17.2357899,89.0976067 16.329737,94.6362779 16.3681298,100.208867 C11.3449963,103.662486 7.28648187,108.345862 4.57819443,113.814015 C0.813729176,120.692329 -0.686718123,128.586422 0.290945225,136.369919 C1.25868451,143.357124 4.38154031,149.866472 9.22271441,154.987491 C9.9114684,158.399086 10.8671423,161.751055 12.0808805,165.012337 L12.8847398,167.160518 C13.2813719,167.988339 13.5810906,168.859371 13.7779167,169.756237 C14.5909452,175.523925 16.6318172,181.049046 19.762202,185.957105 C24.1585912,192.922951 30.5359257,198.409765 38.0723289,201.710434 C38.64879,201.928917 39.1903906,202.230446 39.6800473,202.60551 C45.5713219,207.271299 52.0980035,211.069041 59.0619865,213.883462 C59.7296382,214.104122 60.3398639,214.471036 60.8483403,214.957552 C67.9420095,222.212003 77.51844,226.498568 87.6436478,226.951565 C93.1461612,227.220436 98.6459118,226.367837 103.81015,224.445353 Z M46.2002388,193.386232 C44.9622571,192.46994 43.6113039,191.717815 42.1809427,191.148543 C36.7231359,188.751837 32.1154149,184.75831 28.9619243,179.691576 C26.694915,176.144033 25.2314852,172.141599 24.6746751,167.966086 C24.3248011,166.183164 23.7858359,164.442807 23.0669566,162.774648 C23.0642348,161.271551 23.2138655,159.772063 23.5135451,158.29927 L24.0494513,156.598626 C25.084559,152.5935 28.8716986,149.936868 32.9812204,150.333098 L33.695762,150.333098 C36.664363,150.421887 39.5584053,151.285775 42.091625,152.839309 C51.3970649,157.573931 58.3204996,165.97104 61.2056111,176.021766 C61.9587339,178.55191 62.3791003,181.16974 62.4560587,183.808923 C62.4739066,185.347307 62.2937869,186.881579 61.9201526,188.373808 C61.1306618,191.66441 58.3929134,194.122932 55.0426903,194.54983 C52.6791727,194.968124 50.2607926,194.968124 47.897275,194.54983 L46.2002388,193.386232 Z M18.1544836,148.274424 C14.8066736,144.541989 12.6318482,139.902878 11.9022452,134.937798 C11.1863573,129.390785 12.2168079,123.758198 14.849729,118.826438 C16.7061546,115.07151 19.4693641,111.840913 22.8883213,109.428145 C23.7468804,108.577154 24.4430783,107.576138 24.9426282,106.474396 L25.567852,106.474396 C26.8804594,106.466483 28.1142213,107.101383 28.8726066,108.175039 C30.083544,109.959282 30.8212547,112.023102 31.0162312,114.172045 C31.3214291,116.126199 31.4707645,118.101617 31.4628197,120.079544 C31.555001,128.661403 30.071471,137.187077 27.0862528,145.231167 C26.3794008,147.110635 25.2835719,148.818882 23.8708159,150.24359 C23.090492,151.04484 22.0388227,151.523888 20.923332,151.586203 L19.9408374,151.586203 C19.5677131,150.375629 18.9607541,149.250368 18.1544836,148.274424 Z M27.6221589,100.208867 C27.6065478,95.9171742 28.3007196,91.6525529 29.6764658,87.5883016 C31.481234,82.7314956 34.80162,78.5878859 39.1441412,75.7733044 C40.4839066,74.7887213 42.0023073,73.8936457 43.5207081,72.9090626 L46.0216034,71.3874342 C46.7391477,70.9270922 47.3485917,70.3163526 47.8079573,69.5972831 C50.3868033,69.0082785 53.0229437,68.7080803 55.6679142,68.7022075 C57.8229172,68.696663 59.9744249,68.8763364 62.098788,69.2392529 C62.806758,69.2982909 63.4562641,69.6562786 63.8851418,70.223836 C64.1580607,70.8828094 64.1580607,71.6235363 63.8851418,72.2825097 C63.5239684,73.3985873 62.9473546,74.4326158 62.1881057,75.3257666 C59.2889337,79.1242407 56.0284126,82.6315057 52.4524773,85.7981505 C47.528763,90.4865207 42.2094006,94.7390774 36.5539281,98.5082233 C34.6652521,99.7981264 32.6253967,100.850284 30.4803251,101.640988 C29.9183612,101.732865 29.3452528,101.732865 28.7832889,101.640988 C28.1928788,101.736656 27.5880587,101.609054 27.0862528,101.282958 C27.0862528,101.282958 27.6221589,100.566897 27.6221589,100.208867 Z M48.8797696,66.4645187 L48.8797696,65.8379658 C48.6360122,63.5909568 47.0965873,61.6976465 44.9497911,61.0045578 L41.1984481,59.8409596 L39.5907296,59.8409596 C38.5233719,56.7417571 35.8505874,54.4753627 32.6239497,53.933461 C32.1172073,51.5077527 30.6295523,49.4011629 28.5153358,48.1154699 C27.0862528,47.2203944 27.0862528,46.7728566 27.0862528,47.2203944 C27.3051963,44.4987282 25.8573289,41.915338 23.4242274,40.6863429 C24.0884753,38.0234931 23.3851046,35.2040299 21.5485559,33.1677082 L20.923332,32.2726327 L20.923332,31.4670647 L21.6378736,31.4670647 C21.8426109,29.4207991 21.3379595,27.3662951 20.2087905,25.6490736 C20.2329036,25.2914511 20.2329036,24.9326055 20.2087905,24.574983 L20.923332,24.574983 L20.923332,23.769415 C21.4208214,22.2580014 21.4208214,20.6264357 20.923332,19.1150221 C23.1163701,18.6660712 25.1876106,17.7503461 26.9969351,16.4297955 C27.6344556,16.1028625 28.3355965,15.9195674 29.051242,15.8927501 L30.6589604,15.8927501 C32.5915293,15.8927501 34.4719669,15.2646052 36.018022,14.102599 C38.1926233,14.2527673 40.3566597,13.6870361 42.1809427,12.4914631 L43.6100258,12.4914631 C45.7589881,13.5082914 48.249208,13.5082914 50.3981703,12.4914631 C52.1547772,13.4494632 54.1150525,13.9712682 56.1145026,14.0130915 L58.2581272,14.0130915 C60.6707124,15.4135562 63.4198077,16.1255067 66.2074018,16.0717653 C68.0625637,18.3228346 70.7978788,19.6607669 73.7100879,19.741575 C76.4455458,21.2784279 78.821026,23.3842811 80.6768679,25.9175963 C81.7481926,27.9869614 82.6445085,30.1426923 83.3563986,32.3621402 L84.7854817,36.2109651 C85.1690787,37.1290415 85.7847525,37.9311188 86.5718355,38.5381615 C86.3835091,40.5220633 85.7084699,42.4284903 84.6068463,44.0876299 C83.2088016,45.9925975 81.3696552,47.5284774 79.2477848,48.5630077 C78.4853396,49.0512532 77.5093347,49.0512532 76.7468894,48.5630077 C69.9959863,43.1040774 62.6559076,38.4204598 54.8640549,34.5998291 C58.2581272,36.6585029 61.2949287,38.8066842 63.7958241,40.865358 C67.7114284,43.6855078 71.3591308,46.86156 74.6925825,50.3531588 C75.3162259,51.0269166 75.5218823,51.9886869 75.2284887,52.8593703 C73.5196343,58.2807243 69.3426136,62.5662884 63.9744595,64.4058449 C59.1832903,66.2126511 54.0860226,67.0640016 48.9690873,66.9120565 L48.8797696,66.4645187 Z M141.591534,77.1159177 C142.278843,77.6760139 142.934834,78.2736368 143.556523,78.9060688 C146.504432,82.4754749 148.529119,86.7179109 149.451491,91.2581114 C149.943263,93.4916435 150.182948,95.7734936 150.166032,98.0606856 L150.166032,99.8508367 C150.220585,100.530817 149.974674,101.200543 149.493327,101.682913 C149.01198,102.165283 148.343675,102.411717 147.665137,102.357048 C145.966322,102.282527 144.324034,101.723583 142.931299,100.745912 C138.882775,98.450549 135.055486,95.78373 131.498635,92.7797398 C127.479338,89.4679603 123.906631,86.3351959 120.512558,83.0234163 C117.854235,80.5247609 115.487093,77.7322019 113.456461,74.6992137 C113.04525,74.0360219 112.74364,73.3106185 112.563284,72.5510324 C112.28013,71.8941413 112.28013,71.1492498 112.563284,70.4923586 C112.993761,69.9395368 113.650032,69.6107039 114.349638,69.5972831 C116.354495,69.2397935 118.386893,69.0600831 120.423241,69.0602378 L121.137782,69.0602378 C124.762509,69.0663244 128.358725,69.7022999 131.766588,70.9398964 C132.92985,71.4404403 134.063117,72.0082779 135.16066,72.64054 C137.423617,73.9641371 139.601308,75.4289825 141.680851,77.0264102 L141.591534,77.1159177 Z M156.686224,109.696668 C160.399604,112.377848 163.30443,116.032083 165.082087,120.258559 C165.799514,122.197786 166.308525,124.208155 166.600487,126.255565 C167.79836,133.696079 165.964037,141.306966 161.509379,147.379348 C160.829111,148.324485 160.050665,149.194598 159.187119,149.975067 C157.806403,151.185866 155.74468,151.185866 154.363964,149.975067 C152.990101,149.016901 151.883292,147.722878 151.148527,146.21575 C149.378789,142.74475 148.115455,139.037122 147.397184,135.206321 C146.238752,130.093409 145.610196,124.8743 145.521512,119.632006 C145.448794,116.61236 145.809759,113.597925 146.593324,110.681251 C147.000646,109.447463 147.671176,108.317357 148.558314,107.369471 C149.312947,106.607418 150.345318,106.187125 151.41648,106.205873 C152.175732,106.207634 152.918958,106.424869 153.560104,106.832426 L155.078505,107.996024 C155.589527,108.588082 156.157999,109.127779 156.775541,109.60716 L156.686224,109.696668 Z M111.134201,206.096304 C107.934654,209.410258 104.067862,212.00377 99.7908539,213.704447 C88.9929296,217.751128 76.8287503,215.011004 68.7976149,206.722857 C67.5878194,205.694344 66.2335387,204.849889 64.7783187,204.216646 C64.4110398,203.556948 64.1973064,202.82259 64.1530949,202.068464 C64.1454178,200.330559 64.9774214,198.696365 66.3860372,197.682594 C68.8251133,195.796907 71.6205608,194.426662 74.6032648,193.654754 C79.4565369,192.102674 84.5144736,191.288064 89.6086371,191.23805 L91.2163555,191.23805 C97.0086071,191.138704 102.767121,192.140993 108.186717,194.1918 C110.298621,194.864941 112.204496,196.066346 113.724414,197.682594 C114.995799,199.064559 115.312915,201.077234 114.528273,202.784525 C114.179905,203.398882 113.760167,203.969738 113.277825,204.485168 C112.452506,204.855592 111.720143,205.406032 111.134201,206.096304 Z M155.078505,165.549382 C154.675326,166.86631 154.37667,168.213119 154.185328,169.577222 L154.185328,171.546388 C151.921569,179.974299 146.075097,186.978795 138.197461,190.701005 C135.833547,191.932253 133.564541,193.338437 131.409317,194.90786 C130.012768,195.032459 128.607934,195.032459 127.211385,194.90786 L126.228891,194.90786 C124.809089,194.874011 123.398982,194.663549 122.030959,194.281307 C118.572985,193.470783 115.997895,190.567649 115.600085,187.031195 C114.987288,182.307838 115.5709,177.505888 117.297122,173.068017 C119.771554,165.778682 124.151376,159.287712 129.980234,154.27143 C132.629273,151.699832 135.638147,149.528838 138.912003,147.826886 C140.686733,146.927485 142.640047,146.438119 144.628335,146.394765 L146.593324,146.394765 C149.181904,146.792579 151.414844,148.429096 152.57761,150.780635 C153.978366,153.581004 154.856214,156.614499 155.167823,159.731391 C155.23866,160.983491 155.23866,162.238608 155.167823,163.490708 L155.078505,165.549382 Z M101.48789,91.7951567 C97.1793822,92.9467599 92.7257262,93.459416 88.2688717,93.3167852 C83.2009572,93.2162948 78.2223202,91.9613376 73.7100879,89.6469754 C71.7964194,88.6804428 70.0719078,87.3767301 68.6189795,85.7981505 C66.8232233,84.2507889 65.7902514,81.9954798 65.7902514,79.6221293 C65.7902514,77.2487787 66.8232233,74.9934696 68.6189795,73.446108 C72.8761471,68.6183805 78.6952966,65.4490765 85.0534348,64.4953525 C86.5396658,64.3756253 88.0330883,64.3756253 89.5193194,64.4953525 C96.642646,64.5978061 103.491087,67.2667501 108.811941,72.0139871 C110.174332,73.2121267 111.322233,74.6349178 112.206013,76.2208422 C114.056834,79.650917 113.478761,83.8870595 110.77693,86.6932261 C108.249514,89.2261758 105.061158,90.9943564 101.577208,91.7951567 L101.48789,91.7951567 Z M114.438955,91.7951567 C121.096685,91.9322714 127.464928,94.5488011 132.302494,99.1347762 C137.800772,103.977696 141.355859,110.657653 142.306075,117.931363 C143.765977,125.435689 141.424899,133.177671 136.053837,138.607608 C131.636047,142.836273 125.616341,144.9558 119.530064,144.425599 C113.703049,143.888925 108.227229,141.397492 103.988785,137.354502 C98.6664531,132.717711 95.0758139,126.404953 93.8065686,119.452991 C92.1509749,112.254605 93.8972676,104.693263 98.5404062,98.9557611 C101.836812,94.7537617 106.715476,92.0987891 112.027378,91.6161416 L114.438955,91.7951567 Z M85.6786586,110.054698 C87.241811,118.865859 84.7468291,127.912944 78.890514,134.669276 C75.0947931,139.623347 69.7467942,143.154224 63.7065064,144.694122 C57.64904,146.395212 51.1503963,145.308249 45.9725522,141.727942 C40.7947081,138.147635 37.4741567,132.444951 36.9111989,126.166058 C35.5351887,113.795234 41.8380032,101.837012 52.809748,96.0020118 C56.1787524,93.9397138 60.0281068,92.7978828 63.9744595,92.6902323 C74.5037974,92.2878162 83.7382977,99.6758872 85.6786586,110.054698 Z M78.5332433,140.755789 C81.9768134,139.058657 85.7714796,138.199975 89.6086371,138.249578 L91.0377201,138.249578 C100.164036,138.362946 108.552174,143.297624 113.09919,151.228173 C117.625541,159.181031 116.993384,169.070684 111.491472,176.379796 C107.201734,182.096427 100.727887,185.761926 93.6279332,186.49415 C86.0794958,187.697599 78.3774926,185.613312 72.4596402,180.765666 C66.0292699,175.572516 62.8065285,167.367238 63.9796004,159.175016 C65.1526723,150.982794 70.5478399,144.016795 78.1759725,140.845297 L78.5332433,140.755789 Z M159.633707,24.3959679 L159.633707,25.4700585 C158.421393,27.2850577 157.913124,29.4816287 158.204624,31.6460798 L158.204624,32.2726327 C156.51707,34.4597742 155.5495,37.118428 155.435776,39.8807749 L154.721234,40.5073277 C152.894763,42.0187861 151.899,44.3139077 152.041704,46.683349 C149.392257,48.4336998 147.311975,50.9228987 146.057418,53.8439534 L144.985606,53.8439534 C142.316804,54.8085374 140.092751,56.7189209 138.733368,59.2144067 L134.267483,60.8255427 C132.077772,61.4463281 130.464059,63.3095588 130.158869,65.5694431 C130.124791,65.8967491 130.124791,66.2267202 130.158869,66.5540262 C125.47872,66.6182358 120.823482,65.8609091 116.403945,64.3163374 C111.837057,62.9498414 107.948342,59.9153067 105.507186,55.8131196 C104.912391,54.7018249 104.433499,53.5320437 104.078103,52.322325 C103.735679,51.438544 103.986174,50.434437 104.703327,49.8161135 C108.521282,45.8903432 112.742671,42.3800425 117.297122,39.3437295 C119.798017,37.5535784 122.477548,35.8529349 125.246396,34.0627838 C121.315664,35.9901031 117.498505,38.1418195 113.813732,40.5073277 C110.172146,42.7850133 106.681462,45.2964726 103.363562,48.0259624 C102.524809,48.5846748 101.433466,48.5846748 100.594713,48.0259624 C96.9637405,46.3269826 94.3475627,43.0083257 93.5386155,39.0752069 L93.5386155,38.2696389 C94.3118594,37.632584 94.8983323,36.7974036 95.2356516,35.8529349 L96.3967816,32.1831251 C97.2673395,29.0245674 98.5911561,26.009498 100.32676,23.2323696 C101.521314,21.3471558 102.997329,19.6566953 104.703327,18.2199466 C107.287178,18.3054593 109.763451,17.1804958 111.402154,15.1766897 L112.384648,14.1921066 L113.992367,14.1921066 C116.26211,14.2748746 118.512824,13.7496216 120.512558,12.6704782 L121.763006,12.6704782 C123.255887,13.0650149 124.825328,13.0650149 126.318208,12.6704782 L127.836609,11.4173724 C127.836609,11.4173724 128.729786,11.4173724 129.265692,11.9544177 C131.28171,12.7092684 133.501913,12.7092684 135.517931,11.9544177 C136.232472,11.9544177 136.589743,11.9544177 136.589743,11.4173724 L137.572238,11.9544177 C139.075292,12.8860719 140.806699,13.3818112 142.574028,13.3865386 L143.199252,13.3865386 C144.998617,15.0037324 147.411641,15.7553205 149.808761,15.4452124 C150.667579,15.3190861 151.540157,15.3190861 152.398974,15.4452124 C153.83778,17.5757735 156.390204,18.6619838 158.919166,18.2199466 C158.506731,19.8954781 158.506731,21.6463456 158.919166,23.3218772 L158.919166,23.769415 L159.633707,24.3959679 Z" id="Layer_1"></path>
        </g>
    </g>
</svg>