<?xml version="1.0" encoding="UTF-8"?>
<svg width="25px" height="25px" viewBox="0 0 225 201" version="1.1" xmlns="http://www.w3.org/2000/svg" xmlns:xlink="http://www.w3.org/1999/xlink">
    <!-- Generator: Sketch 48.2 (47327) - http://www.bohemiancoding.com/sketch -->
    <title>Swift_logo</title>
    <desc>Created with Sketch.</desc>
    <defs>
        <linearGradient x1="50%" y1="0%" x2="50%" y2="100%" id="linearGradient-1">
            <stop stop-color="#FFFFFF" stop-opacity="0" offset="0%"></stop>
            <stop stop-color="#FFFFFF" offset="100%"></stop>
        </linearGradient>
    </defs>
    <g id="Page-1" stroke="none" stroke-width="1" fill="none" fill-rule="evenodd">
        <g id="Swift_logo" fill="url(#linearGradient-1)" fill-rule="nonzero">
            <path d="M169.715131,187.093271 C143.211517,202.356532 106.769757,203.924752 70.1065181,188.259529 C40.4209934,175.668471 15.7897256,153.628458 0,128.446342 C7.57911373,134.741871 16.4212238,139.780559 25.894832,144.185164 C63.7574628,161.877186 101.612143,160.665636 128.252052,144.230456 C128.235015,144.213472 128.223657,144.202149 128.2123,144.185164 C90.3167309,115.221202 58.1057814,77.4423664 34.1065797,46.5931421 C29.0517549,41.5555866 25.2621981,35.2589254 21.4726412,29.5923831 C50.5255319,56.0370017 96.6334162,89.40557 113.051233,98.8545249 C78.3188337,62.3325307 47.368609,17.0013251 48.6293337,18.2581664 C103.57876,73.6667475 154.740333,105.150054 154.740333,105.150054 C156.432658,106.101177 157.738814,106.89378 158.789418,107.60146 C159.896811,104.793383 160.86791,101.877738 161.685677,98.8545249 C170.527787,66.7427979 160.424953,30.2208037 138.316838,0 C189.472732,30.8520551 219.792595,88.7771494 207.156952,137.261781 C206.827574,138.569575 206.469801,139.860385 206.083633,141.128549 C206.231285,141.304054 206.378938,141.48522 206.52659,141.672048 C231.786517,173.155354 224.841173,206.523923 221.683682,200.228394 C207.980399,173.495041 182.612572,181.670171 169.715699,187.093837 L169.715131,187.093271 Z" id="Shape"></path>
        </g>
    </g>
</svg>